# xmcd
#
# Track frame offsets:
#	183
#	7935
#	41263
#	53383
#	70298
#	82623
#	102493
#	122283
#	135368
#	157378
#	170828
#	196638
#	206098
#	224713
#	240988
#	269728
#	293118
#	309895
#	321663
#
# Disc length: 4467 seconds
# Revision: 5
# Processed by: cddbd v1.5.2PL0 Copyright (c) Steve Scherf et al.
# Submitted via: dBpowerAMP V12.0
#
DISCID=0a117113
DTITLE=Various Artist - Six String Boogie - The Power of Blues Guitar [dBP-LITE02-1-FLAC@]
DYEAR=1994
DGENRE=Blues
TTITLE0=U.P.Wilson W. Paul Orta And The Kingpins - Enter The Tornado
TTITLE1=U.P. Wilson W. Paul Orta And The Kingpins - Hold On Baby
TTITLE2=Ike Turner - Prancin'
TTITLE3=Lacy Gibson And Sunnyland Slim - Bessie Mae
TTITLE4=John Lee Hooker - House Rent Boogie
TTITLE5=Buster Benton - Leave Me Alone
TTITLE6=Fenton Robinson - Somebody Loan Me A Dime
TTITLE7=Mark Pollock - Texas Love
TTITLE8=The Mighty Houserockers - Blue Light
TTITLE9=Mississippi Fred McDowell - Shake 'em On Down
TTITLE10=Luther Allison - You're Gonna Need Me
TTITLE11=Matt 'Guitar' Murphy And Memphis Slim - All By Myself
TTITLE12=Byther Smith - Walked All Night Long
TTITLE13=Mike Morgan - Well Allright Then
TTITLE14=Buddy Guy - The First Time I Met The Blues
TTITLE15=Todd Sharpville - Little Bit Worried
TTITLE16=Earl Hooker - Dust My Broom
TTITLE17=Peter Green And Mick Green - Way You Dance
TTITLE18=The Elmores - Little Stevie's Shuffle
EXTD=
EXTT0=
EXTT1=
EXTT2=
EXTT3=
EXTT4=
EXTT5=
EXTT6=
EXTT7=
EXTT8=
EXTT9=
EXTT10=
EXTT11=
EXTT12=
EXTT13=
EXTT14=
EXTT15=
EXTT16=
EXTT17=
EXTT18=
PLAYORDER=
